<svg id="svg" version="1.1" xmlns="http://www.w3.org/2000/svg" xmlns:xlink="http://www.w3.org/1999/xlink" width="400" height="266.6666666666667" viewBox="0, 0, 400,266.6666666666667"><g id="svgg"><path id="path0" d="M182.733 103.320 C 161.090 124.980,153.333 132.901,153.333 133.344 C 153.333 134.194,169.668 150.533,170.282 150.298 C 170.518 150.207,170.866 150.133,171.057 150.133 C 171.248 150.133,171.470 149.884,171.549 149.580 C 171.629 149.276,171.932 148.965,172.222 148.889 C 172.513 148.813,172.813 148.513,172.889 148.222 C 172.965 147.932,173.265 147.632,173.556 147.556 C 173.846 147.480,174.146 147.180,174.222 146.889 C 174.298 146.598,174.598 146.298,174.889 146.222 C 175.180 146.146,175.480 145.846,175.556 145.556 C 175.632 145.265,175.932 144.965,176.222 144.889 C 176.513 144.813,176.813 144.513,176.889 144.222 C 176.965 143.932,177.265 143.632,177.556 143.556 C 177.846 143.480,178.146 143.180,178.222 142.889 C 178.298 142.598,178.598 142.298,178.889 142.222 C 179.180 142.146,179.480 141.846,179.556 141.556 C 179.632 141.265,179.932 140.965,180.222 140.889 C 180.513 140.813,180.813 140.513,180.889 140.222 C 180.965 139.932,181.265 139.632,181.556 139.556 C 181.846 139.480,182.146 139.180,182.222 138.889 C 182.298 138.598,182.598 138.298,182.889 138.222 C 183.180 138.146,183.480 137.846,183.556 137.556 C 183.632 137.265,183.932 136.965,184.222 136.889 C 184.513 136.813,184.813 136.513,184.889 136.222 C 184.965 135.932,185.265 135.632,185.556 135.556 C 185.846 135.480,186.146 135.180,186.222 134.889 C 186.298 134.598,186.598 134.298,186.889 134.222 C 187.180 134.146,187.480 133.846,187.556 133.556 C 187.632 133.265,187.932 132.965,188.222 132.889 C 188.513 132.813,188.813 132.513,188.889 132.222 C 188.965 131.932,189.265 131.632,189.556 131.556 C 189.846 131.480,190.146 131.180,190.222 130.889 C 190.298 130.598,190.598 130.298,190.889 130.222 C 191.180 130.146,191.480 129.846,191.556 129.556 C 191.632 129.265,191.932 128.965,192.222 128.889 C 192.513 128.813,192.813 128.513,192.889 128.222 C 192.965 127.932,193.265 127.632,193.556 127.556 C 193.846 127.480,194.146 127.180,194.222 126.889 C 194.298 126.598,194.598 126.298,194.889 126.222 C 195.180 126.146,195.480 125.846,195.556 125.556 C 195.632 125.265,195.932 124.965,196.222 124.889 C 196.513 124.813,196.813 124.513,196.889 124.222 C 196.965 123.932,197.265 123.632,197.556 123.556 C 197.846 123.480,198.146 123.180,198.222 122.889 C 198.298 122.598,198.598 122.298,198.889 122.222 C 199.180 122.146,199.480 121.846,199.556 121.556 C 199.632 121.265,199.932 120.965,200.222 120.889 C 200.513 120.813,200.813 120.513,200.889 120.222 C 200.965 119.932,201.265 119.632,201.556 119.556 C 201.846 119.480,202.146 119.180,202.222 118.889 C 202.298 118.598,202.598 118.298,202.889 118.222 C 203.180 118.146,203.480 117.846,203.556 117.556 C 203.632 117.265,203.932 116.965,204.222 116.889 C 204.513 116.813,204.813 116.513,204.889 116.222 C 204.965 115.932,205.265 115.632,205.556 115.556 C 205.846 115.480,206.146 115.180,206.222 114.889 C 206.298 114.598,206.598 114.298,206.889 114.222 C 207.180 114.146,207.480 113.846,207.556 113.556 C 207.632 113.265,207.932 112.965,208.222 112.889 C 208.513 112.813,208.813 112.513,208.889 112.222 C 208.965 111.932,209.265 111.632,209.556 111.556 C 209.846 111.480,210.146 111.180,210.222 110.889 C 210.298 110.598,210.598 110.298,210.889 110.222 C 211.180 110.146,211.480 109.846,211.556 109.556 C 211.632 109.265,211.932 108.965,212.222 108.889 C 212.513 108.813,212.813 108.513,212.889 108.222 C 212.965 107.932,213.265 107.632,213.556 107.556 C 213.846 107.480,214.146 107.180,214.222 106.889 C 214.298 106.598,214.598 106.298,214.889 106.222 C 215.180 106.146,215.480 105.846,215.556 105.556 C 215.632 105.265,215.932 104.965,216.222 104.889 C 216.513 104.813,216.813 104.513,216.889 104.222 C 216.965 103.932,217.265 103.632,217.556 103.556 C 217.846 103.480,218.146 103.180,218.222 102.889 C 218.298 102.598,218.598 102.298,218.889 102.222 C 219.180 102.146,219.480 101.846,219.556 101.556 C 219.632 101.265,219.932 100.965,220.222 100.889 C 220.513 100.813,220.813 100.513,220.889 100.222 C 220.965 99.932,221.265 99.632,221.556 99.556 C 221.846 99.480,222.146 99.180,222.222 98.889 C 222.298 98.598,222.598 98.298,222.889 98.222 C 223.180 98.146,223.480 97.846,223.556 97.556 C 223.632 97.265,223.932 96.965,224.222 96.889 C 224.513 96.813,224.813 96.513,224.889 96.222 C 224.965 95.932,225.265 95.632,225.556 95.556 C 225.846 95.480,226.146 95.180,226.222 94.889 C 226.298 94.598,226.598 94.298,226.889 94.222 C 227.180 94.146,227.480 93.846,227.556 93.556 C 227.632 93.265,227.932 92.965,228.222 92.889 C 228.513 92.813,228.813 92.513,228.889 92.222 C 228.965 91.932,229.265 91.632,229.556 91.556 C 229.846 91.480,230.146 91.180,230.222 90.889 C 230.298 90.598,230.598 90.298,230.889 90.222 C 231.180 90.146,231.480 89.846,231.556 89.556 C 231.632 89.265,231.932 88.965,232.222 88.889 C 232.513 88.813,232.813 88.513,232.889 88.222 C 232.965 87.932,233.265 87.632,233.556 87.556 C 233.846 87.480,234.146 87.180,234.222 86.889 C 234.298 86.598,234.598 86.298,234.889 86.222 C 235.180 86.146,235.480 85.846,235.556 85.556 C 235.632 85.265,235.932 84.965,236.222 84.889 C 236.513 84.813,236.813 84.513,236.889 84.222 C 236.965 83.932,237.265 83.632,237.556 83.556 C 237.846 83.480,238.146 83.180,238.222 82.889 C 238.298 82.598,238.598 82.298,238.889 82.222 C 239.180 82.146,239.480 81.846,239.556 81.556 C 239.632 81.265,239.932 80.965,240.222 80.889 C 240.513 80.813,240.813 80.513,240.889 80.222 C 240.965 79.932,241.265 79.632,241.556 79.556 C 241.846 79.480,242.146 79.180,242.222 78.889 C 242.298 78.598,242.598 78.298,242.889 78.222 C 243.180 78.146,243.480 77.846,243.556 77.556 C 243.632 77.265,243.932 76.965,244.222 76.889 C 244.513 76.813,244.813 76.513,244.889 76.222 C 244.965 75.932,245.265 75.632,245.556 75.556 C 245.846 75.480,246.144 75.189,246.217 74.909 C 246.290 74.630,246.631 74.289,246.975 74.151 C 247.374 73.991,241.192 73.900,229.867 73.899 L 212.133 73.897 182.733 103.320 M210.933 130.273 C 210.933 130.497,210.633 130.794,210.267 130.933 C 209.900 131.073,209.600 131.373,209.600 131.600 C 209.600 131.827,209.300 132.127,208.933 132.267 C 208.567 132.406,208.267 132.706,208.267 132.933 C 208.267 133.161,207.967 133.461,207.600 133.600 C 207.233 133.739,206.933 134.039,206.933 134.267 C 206.933 134.494,206.633 134.794,206.267 134.933 C 205.900 135.073,205.600 135.373,205.600 135.600 C 205.600 135.827,205.300 136.127,204.933 136.267 C 204.567 136.406,204.267 136.706,204.267 136.933 C 204.267 137.161,203.967 137.461,203.600 137.600 C 203.233 137.739,202.933 138.039,202.933 138.266 C 202.933 138.493,202.633 138.815,202.267 138.982 C 201.900 139.149,201.600 139.449,201.600 139.649 C 201.600 139.848,201.300 140.148,200.933 140.315 C 200.567 140.482,200.267 140.768,200.267 140.951 C 200.267 141.133,199.708 141.610,199.025 142.010 C 198.020 142.599,181.635 158.631,180.315 160.317 C 179.756 161.031,180.036 161.356,188.479 169.787 C 192.835 174.137,196.737 178.125,197.150 178.648 C 197.992 179.718,209.711 191.597,210.965 192.652 L 211.774 193.333 229.588 193.333 C 243.867 193.333,247.458 193.265,247.689 192.987 C 247.910 192.720,244.524 189.194,232.898 177.587 C 217.608 162.321,216.361 160.963,216.687 159.937 C 216.785 159.626,223.507 152.733,231.623 144.619 L 246.379 129.867 228.656 129.867 C 212.952 129.867,210.933 129.913,210.933 130.273 M216.800 161.610 C 216.800 161.762,223.759 168.847,232.264 177.353 C 241.174 186.265,247.584 192.874,247.390 192.949 C 247.205 193.020,239.076 193.045,229.326 193.006 L 211.600 192.933 204.769 186.104 L 197.937 179.274 198.265 178.493 C 198.446 178.064,200.253 176.098,202.281 174.123 C 204.309 172.149,208.076 168.466,210.651 165.939 C 215.156 161.518,216.800 160.361,216.800 161.610 " stroke="none" fill="#4ec1f9" fill-rule="evenodd"></path><path id="path1" d="M210.651 165.939 C 208.076 168.466,204.309 172.149,202.281 174.123 C 200.253 176.098,198.446 178.064,198.265 178.493 L 197.937 179.274 204.769 186.104 L 211.600 192.933 229.326 193.006 C 239.076 193.045,247.205 193.020,247.390 192.949 C 247.584 192.874,241.174 186.265,232.264 177.353 C 223.759 168.847,216.800 161.762,216.800 161.610 C 216.800 160.361,215.156 161.518,210.651 165.939 " stroke="none" fill="#045398" fill-rule="evenodd"></path><path id="path2" d="M0.000 133.333 L 0.000 266.667 200.000 266.667 L 400.000 266.667 400.000 133.333 L 400.000 0.000 200.000 0.000 L 0.000 0.000 0.000 133.333 M248.256 73.454 C 248.709 73.999,248.501 74.754,247.815 75.056 C 247.495 75.197,247.174 75.536,247.103 75.809 C 247.031 76.083,246.735 76.368,246.444 76.444 C 246.154 76.520,245.854 76.820,245.778 77.111 C 245.702 77.402,245.402 77.702,245.111 77.778 C 244.820 77.854,244.520 78.154,244.444 78.444 C 244.368 78.735,244.068 79.035,243.778 79.111 C 243.487 79.187,243.187 79.487,243.111 79.778 C 243.035 80.068,242.735 80.368,242.444 80.444 C 242.154 80.520,241.854 80.820,241.778 81.111 C 241.702 81.402,241.402 81.702,241.111 81.778 C 240.820 81.854,240.520 82.154,240.444 82.444 C 240.368 82.735,240.068 83.035,239.778 83.111 C 239.487 83.187,239.187 83.487,239.111 83.778 C 239.035 84.068,238.735 84.368,238.444 84.444 C 238.154 84.520,237.854 84.820,237.778 85.111 C 237.702 85.402,237.402 85.702,237.111 85.778 C 236.820 85.854,236.520 86.154,236.444 86.444 C 236.368 86.735,236.068 87.035,235.778 87.111 C 235.487 87.187,235.187 87.487,235.111 87.778 C 235.035 88.068,234.735 88.368,234.444 88.444 C 234.154 88.520,233.854 88.820,233.778 89.111 C 233.702 89.402,233.402 89.702,233.111 89.778 C 232.820 89.854,232.520 90.154,232.444 90.444 C 232.368 90.735,232.068 91.035,231.778 91.111 C 231.487 91.187,231.187 91.487,231.111 91.778 C 231.035 92.068,230.735 92.368,230.444 92.444 C 230.154 92.520,229.854 92.820,229.778 93.111 C 229.702 93.402,229.402 93.702,229.111 93.778 C 228.820 93.854,228.520 94.154,228.444 94.444 C 228.368 94.735,228.068 95.035,227.778 95.111 C 227.487 95.187,227.187 95.487,227.111 95.778 C 227.035 96.068,226.735 96.368,226.444 96.444 C 226.154 96.520,225.854 96.820,225.778 97.111 C 225.702 97.402,225.402 97.702,225.111 97.778 C 224.820 97.854,224.520 98.154,224.444 98.444 C 224.368 98.735,224.068 99.035,223.778 99.111 C 223.487 99.187,223.187 99.487,223.111 99.778 C 223.035 100.068,222.735 100.368,222.444 100.444 C 222.154 100.520,221.854 100.820,221.778 101.111 C 221.702 101.402,221.402 101.702,221.111 101.778 C 220.820 101.854,220.520 102.154,220.444 102.444 C 220.368 102.735,220.068 103.035,219.778 103.111 C 219.487 103.187,219.187 103.487,219.111 103.778 C 219.035 104.068,218.735 104.368,218.444 104.444 C 218.154 104.520,217.854 104.820,217.778 105.111 C 217.702 105.402,217.402 105.702,217.111 105.778 C 216.820 105.854,216.520 106.154,216.444 106.444 C 216.368 106.735,216.068 107.035,215.778 107.111 C 215.487 107.187,215.187 107.487,215.111 107.778 C 215.035 108.068,214.735 108.368,214.444 108.444 C 214.154 108.520,213.854 108.820,213.778 109.111 C 213.702 109.402,213.402 109.702,213.111 109.778 C 212.820 109.854,212.520 110.154,212.444 110.444 C 212.368 110.735,212.068 111.035,211.778 111.111 C 211.487 111.187,211.187 111.487,211.111 111.778 C 211.035 112.068,210.735 112.368,210.444 112.444 C 210.154 112.520,209.854 112.820,209.778 113.111 C 209.702 113.402,209.402 113.702,209.111 113.778 C 208.820 113.854,208.520 114.154,208.444 114.444 C 208.368 114.735,208.068 115.035,207.778 115.111 C 207.487 115.187,207.187 115.487,207.111 115.778 C 207.035 116.068,206.735 116.368,206.444 116.444 C 206.154 116.520,205.854 116.820,205.778 117.111 C 205.702 117.402,205.402 117.702,205.111 117.778 C 204.820 117.854,204.520 118.154,204.444 118.444 C 204.368 118.735,204.057 119.038,203.753 119.118 C 203.449 119.197,203.200 119.376,203.200 119.515 C 203.200 119.932,170.716 152.267,170.297 152.267 C 169.619 152.267,169.067 151.955,169.067 151.571 C 169.067 151.367,168.952 151.200,168.812 151.200 C 168.080 151.200,151.467 134.090,151.467 133.335 C 151.467 132.606,169.126 114.400,169.833 114.400 C 169.951 114.400,170.184 114.100,170.351 113.733 C 170.519 113.367,170.819 113.067,171.018 113.067 C 171.218 113.067,171.518 112.767,171.685 112.400 C 171.852 112.033,172.152 111.733,172.351 111.733 C 172.551 111.733,172.851 111.433,173.018 111.067 C 173.185 110.700,173.485 110.400,173.685 110.400 C 173.884 110.400,174.184 110.100,174.351 109.733 C 174.519 109.367,174.819 109.067,175.018 109.067 C 175.218 109.067,175.518 108.767,175.685 108.400 C 175.852 108.033,176.152 107.733,176.351 107.733 C 176.551 107.733,176.851 107.433,177.018 107.067 C 177.185 106.700,177.485 106.400,177.685 106.400 C 177.884 106.400,178.184 106.100,178.351 105.733 C 178.519 105.367,178.819 105.067,179.018 105.067 C 179.218 105.067,179.518 104.767,179.685 104.400 C 179.852 104.033,180.152 103.733,180.351 103.733 C 180.551 103.733,180.851 103.433,181.018 103.067 C 181.185 102.700,181.485 102.400,181.685 102.400 C 181.884 102.400,182.184 102.100,182.351 101.733 C 182.519 101.367,182.819 101.067,183.018 101.067 C 183.218 101.067,183.518 100.767,183.685 100.400 C 183.852 100.033,184.152 99.733,184.351 99.733 C 184.551 99.733,184.851 99.433,185.018 99.067 C 185.185 98.700,185.485 98.400,185.685 98.400 C 185.884 98.400,186.184 98.100,186.351 97.733 C 186.519 97.367,186.819 97.067,187.018 97.067 C 187.218 97.067,187.518 96.767,187.685 96.400 C 187.852 96.033,188.152 95.733,188.351 95.733 C 188.551 95.733,188.851 95.433,189.018 95.067 C 189.185 94.700,189.485 94.400,189.685 94.400 C 189.884 94.400,190.184 94.100,190.351 93.733 C 190.519 93.367,190.819 93.067,191.018 93.067 C 191.218 93.067,191.518 92.767,191.685 92.400 C 191.852 92.033,192.152 91.733,192.351 91.733 C 192.551 91.733,192.851 91.433,193.018 91.067 C 193.185 90.700,193.485 90.400,193.685 90.400 C 193.884 90.400,194.184 90.100,194.351 89.733 C 194.519 89.367,194.819 89.067,195.018 89.067 C 195.218 89.067,195.518 88.767,195.685 88.400 C 195.852 88.033,196.152 87.733,196.351 87.733 C 196.551 87.733,196.851 87.433,197.018 87.067 C 197.185 86.700,197.485 86.400,197.685 86.400 C 197.884 86.400,198.184 86.100,198.351 85.733 C 198.519 85.367,198.819 85.067,199.018 85.067 C 199.218 85.067,199.518 84.767,199.685 84.400 C 199.852 84.033,200.152 83.733,200.351 83.733 C 200.551 83.733,200.851 83.433,201.018 83.067 C 201.185 82.700,201.504 82.400,201.728 82.400 C 201.951 82.400,202.133 82.280,202.133 82.134 C 202.133 81.988,204.129 79.888,206.568 77.468 L 211.003 73.067 229.469 73.067 C 245.286 73.067,247.981 73.122,248.256 73.454 M248.199 128.306 C 249.122 129.229,248.485 129.947,233.021 145.407 C 217.714 160.710,217.284 161.198,218.533 161.867 C 218.900 162.063,219.200 162.363,219.200 162.533 C 219.200 162.704,219.500 163.004,219.867 163.200 C 220.233 163.396,220.533 163.696,220.533 163.867 C 220.533 164.037,220.833 164.337,221.200 164.533 C 221.567 164.730,221.867 165.030,221.867 165.200 C 221.867 165.370,222.167 165.670,222.533 165.867 C 222.900 166.063,223.200 166.363,223.200 166.533 C 223.200 166.704,223.500 167.004,223.867 167.200 C 224.233 167.396,224.533 167.696,224.533 167.867 C 224.533 168.037,224.833 168.337,225.200 168.533 C 225.567 168.730,225.867 169.030,225.867 169.200 C 225.867 169.370,226.167 169.670,226.533 169.867 C 226.900 170.063,227.200 170.363,227.200 170.533 C 227.200 170.704,227.500 171.004,227.867 171.200 C 228.233 171.396,228.533 171.696,228.533 171.867 C 228.533 172.037,228.833 172.337,229.200 172.533 C 229.567 172.730,229.867 173.030,229.867 173.200 C 229.867 173.370,230.167 173.670,230.533 173.867 C 230.900 174.063,231.200 174.363,231.200 174.533 C 231.200 174.704,231.500 175.004,231.867 175.200 C 232.233 175.396,232.533 175.696,232.533 175.867 C 232.533 176.037,232.833 176.337,233.200 176.533 C 233.567 176.730,233.867 177.030,233.867 177.200 C 233.867 177.370,234.167 177.670,234.533 177.867 C 234.900 178.063,235.200 178.363,235.200 178.533 C 235.200 178.704,235.500 179.004,235.867 179.200 C 236.233 179.396,236.533 179.696,236.533 179.867 C 236.533 180.037,236.833 180.337,237.200 180.533 C 237.567 180.730,237.867 181.030,237.867 181.200 C 237.867 181.370,238.167 181.670,238.533 181.867 C 238.900 182.063,239.200 182.363,239.200 182.533 C 239.200 182.704,239.500 183.004,239.867 183.200 C 240.233 183.396,240.533 183.696,240.533 183.867 C 240.533 184.037,240.833 184.337,241.200 184.533 C 241.567 184.730,241.867 185.030,241.867 185.200 C 241.867 185.370,242.167 185.670,242.533 185.867 C 242.900 186.063,243.200 186.363,243.200 186.533 C 243.200 186.704,243.500 187.004,243.867 187.200 C 244.233 187.396,244.533 187.696,244.533 187.867 C 244.533 188.037,244.833 188.337,245.200 188.533 C 245.567 188.730,245.867 189.030,245.867 189.200 C 245.867 189.370,246.167 189.670,246.533 189.867 C 246.900 190.063,247.200 190.336,247.200 190.473 C 247.200 190.611,247.485 190.948,247.834 191.222 C 248.588 191.815,248.800 192.470,248.501 193.278 L 248.283 193.870 229.408 193.802 L 210.533 193.733 210.277 193.150 C 210.136 192.829,209.797 192.508,209.524 192.436 C 209.251 192.365,208.965 192.068,208.889 191.778 C 208.813 191.487,208.513 191.187,208.222 191.111 C 207.932 191.035,207.632 190.735,207.556 190.444 C 207.480 190.154,207.180 189.854,206.889 189.778 C 206.598 189.702,206.298 189.402,206.222 189.111 C 206.146 188.820,205.846 188.520,205.556 188.444 C 205.265 188.368,204.965 188.068,204.889 187.778 C 204.813 187.487,204.513 187.187,204.222 187.111 C 203.932 187.035,203.632 186.735,203.556 186.444 C 203.480 186.154,203.180 185.854,202.889 185.778 C 202.598 185.702,202.298 185.402,202.222 185.111 C 202.146 184.820,201.846 184.520,201.556 184.444 C 201.265 184.368,200.965 184.068,200.889 183.778 C 200.813 183.487,200.513 183.187,200.222 183.111 C 199.932 183.035,199.632 182.735,199.556 182.444 C 199.480 182.154,199.180 181.854,198.889 181.778 C 198.598 181.702,198.298 181.402,198.222 181.111 C 198.146 180.820,197.846 180.520,197.556 180.444 C 197.265 180.368,196.963 180.061,196.885 179.762 C 196.806 179.463,196.522 179.148,196.252 179.062 C 195.982 178.976,195.688 178.678,195.600 178.400 C 195.512 178.122,195.212 177.822,194.933 177.733 C 194.655 177.645,194.355 177.345,194.267 177.067 C 194.178 176.788,193.878 176.488,193.600 176.400 C 193.322 176.312,193.022 176.012,192.933 175.733 C 192.845 175.455,192.545 175.155,192.267 175.067 C 191.988 174.978,191.688 174.678,191.600 174.400 C 191.512 174.122,191.212 173.822,190.933 173.733 C 190.655 173.645,190.355 173.345,190.267 173.067 C 190.178 172.788,189.878 172.488,189.600 172.400 C 189.322 172.312,189.022 172.012,188.933 171.733 C 188.845 171.455,188.545 171.155,188.267 171.067 C 187.988 170.978,187.688 170.678,187.600 170.400 C 187.512 170.122,187.212 169.822,186.933 169.733 C 186.655 169.645,186.355 169.345,186.267 169.067 C 186.178 168.788,185.878 168.488,185.600 168.400 C 185.322 168.312,185.022 168.012,184.933 167.733 C 184.845 167.455,184.545 167.155,184.267 167.067 C 183.988 166.978,183.688 166.678,183.600 166.400 C 183.512 166.122,183.212 165.822,182.933 165.733 C 182.655 165.645,182.355 165.345,182.267 165.067 C 182.178 164.788,181.878 164.488,181.600 164.400 C 181.322 164.312,181.022 164.012,180.933 163.733 C 180.845 163.455,180.557 163.159,180.293 163.075 C 180.030 162.992,179.678 162.655,179.511 162.328 C 179.345 162.001,179.018 161.472,178.785 161.153 C 178.332 160.533,181.646 157.105,204.323 134.733 L 211.148 128.000 229.521 128.000 C 242.972 128.000,247.975 128.082,248.199 128.306 " stroke="none" fill="#fcfcfc" fill-rule="evenodd"></path><path id="path3" d="M211.867 73.519 C 210.848 73.756,152.267 132.577,152.267 133.363 C 152.267 133.923,154.005 135.797,161.112 142.898 L 169.956 151.736 170.645 151.285 C 172.906 149.804,248.037 74.020,247.577 73.684 C 247.109 73.341,213.303 73.185,211.867 73.519 M246.975 74.151 C 246.631 74.289,246.290 74.630,246.217 74.909 C 246.144 75.189,245.846 75.480,245.556 75.556 C 245.265 75.632,244.965 75.932,244.889 76.222 C 244.813 76.513,244.513 76.813,244.222 76.889 C 243.932 76.965,243.632 77.265,243.556 77.556 C 243.480 77.846,243.180 78.146,242.889 78.222 C 242.598 78.298,242.298 78.598,242.222 78.889 C 242.146 79.180,241.846 79.480,241.556 79.556 C 241.265 79.632,240.965 79.932,240.889 80.222 C 240.813 80.513,240.513 80.813,240.222 80.889 C 239.932 80.965,239.632 81.265,239.556 81.556 C 239.480 81.846,239.180 82.146,238.889 82.222 C 238.598 82.298,238.298 82.598,238.222 82.889 C 238.146 83.180,237.846 83.480,237.556 83.556 C 237.265 83.632,236.965 83.932,236.889 84.222 C 236.813 84.513,236.513 84.813,236.222 84.889 C 235.932 84.965,235.632 85.265,235.556 85.556 C 235.480 85.846,235.180 86.146,234.889 86.222 C 234.598 86.298,234.298 86.598,234.222 86.889 C 234.146 87.180,233.846 87.480,233.556 87.556 C 233.265 87.632,232.965 87.932,232.889 88.222 C 232.813 88.513,232.513 88.813,232.222 88.889 C 231.932 88.965,231.632 89.265,231.556 89.556 C 231.480 89.846,231.180 90.146,230.889 90.222 C 230.598 90.298,230.298 90.598,230.222 90.889 C 230.146 91.180,229.846 91.480,229.556 91.556 C 229.265 91.632,228.965 91.932,228.889 92.222 C 228.813 92.513,228.513 92.813,228.222 92.889 C 227.932 92.965,227.632 93.265,227.556 93.556 C 227.480 93.846,227.180 94.146,226.889 94.222 C 226.598 94.298,226.298 94.598,226.222 94.889 C 226.146 95.180,225.846 95.480,225.556 95.556 C 225.265 95.632,224.965 95.932,224.889 96.222 C 224.813 96.513,224.513 96.813,224.222 96.889 C 223.932 96.965,223.632 97.265,223.556 97.556 C 223.480 97.846,223.180 98.146,222.889 98.222 C 222.598 98.298,222.298 98.598,222.222 98.889 C 222.146 99.180,221.846 99.480,221.556 99.556 C 221.265 99.632,220.965 99.932,220.889 100.222 C 220.813 100.513,220.513 100.813,220.222 100.889 C 219.932 100.965,219.632 101.265,219.556 101.556 C 219.480 101.846,219.180 102.146,218.889 102.222 C 218.598 102.298,218.298 102.598,218.222 102.889 C 218.146 103.180,217.846 103.480,217.556 103.556 C 217.265 103.632,216.965 103.932,216.889 104.222 C 216.813 104.513,216.513 104.813,216.222 104.889 C 215.932 104.965,215.632 105.265,215.556 105.556 C 215.480 105.846,215.180 106.146,214.889 106.222 C 214.598 106.298,214.298 106.598,214.222 106.889 C 214.146 107.180,213.846 107.480,213.556 107.556 C 213.265 107.632,212.965 107.932,212.889 108.222 C 212.813 108.513,212.513 108.813,212.222 108.889 C 211.932 108.965,211.632 109.265,211.556 109.556 C 211.480 109.846,211.180 110.146,210.889 110.222 C 210.598 110.298,210.298 110.598,210.222 110.889 C 210.146 111.180,209.846 111.480,209.556 111.556 C 209.265 111.632,208.965 111.932,208.889 112.222 C 208.813 112.513,208.513 112.813,208.222 112.889 C 207.932 112.965,207.632 113.265,207.556 113.556 C 207.480 113.846,207.180 114.146,206.889 114.222 C 206.598 114.298,206.298 114.598,206.222 114.889 C 206.146 115.180,205.846 115.480,205.556 115.556 C 205.265 115.632,204.965 115.932,204.889 116.222 C 204.813 116.513,204.513 116.813,204.222 116.889 C 203.932 116.965,203.632 117.265,203.556 117.556 C 203.480 117.846,203.180 118.146,202.889 118.222 C 202.598 118.298,202.298 118.598,202.222 118.889 C 202.146 119.180,201.846 119.480,201.556 119.556 C 201.265 119.632,200.965 119.932,200.889 120.222 C 200.813 120.513,200.513 120.813,200.222 120.889 C 199.932 120.965,199.632 121.265,199.556 121.556 C 199.480 121.846,199.180 122.146,198.889 122.222 C 198.598 122.298,198.298 122.598,198.222 122.889 C 198.146 123.180,197.846 123.480,197.556 123.556 C 197.265 123.632,196.965 123.932,196.889 124.222 C 196.813 124.513,196.513 124.813,196.222 124.889 C 195.932 124.965,195.632 125.265,195.556 125.556 C 195.480 125.846,195.180 126.146,194.889 126.222 C 194.598 126.298,194.298 126.598,194.222 126.889 C 194.146 127.180,193.846 127.480,193.556 127.556 C 193.265 127.632,192.965 127.932,192.889 128.222 C 192.813 128.513,192.513 128.813,192.222 128.889 C 191.932 128.965,191.632 129.265,191.556 129.556 C 191.480 129.846,191.180 130.146,190.889 130.222 C 190.598 130.298,190.298 130.598,190.222 130.889 C 190.146 131.180,189.846 131.480,189.556 131.556 C 189.265 131.632,188.965 131.932,188.889 132.222 C 188.813 132.513,188.513 132.813,188.222 132.889 C 187.932 132.965,187.632 133.265,187.556 133.556 C 187.480 133.846,187.180 134.146,186.889 134.222 C 186.598 134.298,186.298 134.598,186.222 134.889 C 186.146 135.180,185.846 135.480,185.556 135.556 C 185.265 135.632,184.965 135.932,184.889 136.222 C 184.813 136.513,184.513 136.813,184.222 136.889 C 183.932 136.965,183.632 137.265,183.556 137.556 C 183.480 137.846,183.180 138.146,182.889 138.222 C 182.598 138.298,182.298 138.598,182.222 138.889 C 182.146 139.180,181.846 139.480,181.556 139.556 C 181.265 139.632,180.965 139.932,180.889 140.222 C 180.813 140.513,180.513 140.813,180.222 140.889 C 179.932 140.965,179.632 141.265,179.556 141.556 C 179.480 141.846,179.180 142.146,178.889 142.222 C 178.598 142.298,178.298 142.598,178.222 142.889 C 178.146 143.180,177.846 143.480,177.556 143.556 C 177.265 143.632,176.965 143.932,176.889 144.222 C 176.813 144.513,176.513 144.813,176.222 144.889 C 175.932 144.965,175.632 145.265,175.556 145.556 C 175.480 145.846,175.180 146.146,174.889 146.222 C 174.598 146.298,174.298 146.598,174.222 146.889 C 174.146 147.180,173.846 147.480,173.556 147.556 C 173.265 147.632,172.965 147.932,172.889 148.222 C 172.813 148.513,172.513 148.813,172.222 148.889 C 171.932 148.965,171.629 149.276,171.549 149.580 C 171.470 149.884,171.248 150.133,171.057 150.133 C 170.866 150.133,170.518 150.207,170.282 150.298 C 169.668 150.533,153.333 134.194,153.333 133.344 C 153.333 132.901,161.090 124.980,182.733 103.320 L 212.133 73.897 229.867 73.899 C 241.192 73.900,247.374 73.991,246.975 74.151 M197.519 142.227 C 179.591 159.863,179.101 160.379,179.532 161.193 C 179.716 161.540,186.967 168.973,195.644 177.712 L 211.422 193.600 229.328 193.600 C 246.951 193.600,248.267 193.541,248.267 192.749 C 248.267 192.585,241.415 185.600,233.041 177.228 C 224.666 168.856,217.636 161.660,217.417 161.237 L 217.019 160.468 232.269 145.202 C 243.417 134.044,247.493 129.802,247.423 129.435 C 247.329 128.951,246.705 128.931,229.249 128.865 L 211.172 128.796 197.519 142.227 M231.623 144.619 C 223.507 152.733,216.785 159.626,216.687 159.937 C 216.361 160.963,217.608 162.321,232.898 177.587 C 244.524 189.194,247.910 192.720,247.689 192.987 C 247.458 193.265,243.867 193.333,229.588 193.333 L 211.774 193.333 210.965 192.652 C 209.711 191.597,197.992 179.718,197.150 178.648 C 196.737 178.125,192.835 174.137,188.479 169.787 C 180.036 161.356,179.756 161.031,180.315 160.317 C 181.635 158.631,198.020 142.599,199.025 142.010 C 199.708 141.610,200.267 141.133,200.267 140.951 C 200.267 140.768,200.567 140.482,200.933 140.315 C 201.300 140.148,201.600 139.848,201.600 139.649 C 201.600 139.449,201.900 139.149,202.267 138.982 C 202.633 138.815,202.933 138.493,202.933 138.266 C 202.933 138.039,203.233 137.739,203.600 137.600 C 203.967 137.461,204.267 137.161,204.267 136.933 C 204.267 136.706,204.567 136.406,204.933 136.267 C 205.300 136.127,205.600 135.827,205.600 135.600 C 205.600 135.373,205.900 135.073,206.267 134.933 C 206.633 134.794,206.933 134.494,206.933 134.267 C 206.933 134.039,207.233 133.739,207.600 133.600 C 207.967 133.461,208.267 133.161,208.267 132.933 C 208.267 132.706,208.567 132.406,208.933 132.267 C 209.300 132.127,209.600 131.827,209.600 131.600 C 209.600 131.373,209.900 131.073,210.267 130.933 C 210.633 130.794,210.933 130.497,210.933 130.273 C 210.933 129.913,212.952 129.867,228.656 129.867 L 246.379 129.867 231.623 144.619 " stroke="none" fill="#7cd4fc" fill-rule="evenodd"></path><path id="path4" d="M206.568 77.468 C 204.129 79.888,202.133 81.988,202.133 82.134 C 202.133 82.280,201.951 82.400,201.728 82.400 C 201.504 82.400,201.185 82.700,201.018 83.067 C 200.851 83.433,200.551 83.733,200.351 83.733 C 200.152 83.733,199.852 84.033,199.685 84.400 C 199.518 84.767,199.218 85.067,199.018 85.067 C 198.819 85.067,198.519 85.367,198.351 85.733 C 198.184 86.100,197.884 86.400,197.685 86.400 C 197.485 86.400,197.185 86.700,197.018 87.067 C 196.851 87.433,196.551 87.733,196.351 87.733 C 196.152 87.733,195.852 88.033,195.685 88.400 C 195.518 88.767,195.218 89.067,195.018 89.067 C 194.819 89.067,194.519 89.367,194.351 89.733 C 194.184 90.100,193.884 90.400,193.685 90.400 C 193.485 90.400,193.185 90.700,193.018 91.067 C 192.851 91.433,192.551 91.733,192.351 91.733 C 192.152 91.733,191.852 92.033,191.685 92.400 C 191.518 92.767,191.218 93.067,191.018 93.067 C 190.819 93.067,190.519 93.367,190.351 93.733 C 190.184 94.100,189.884 94.400,189.685 94.400 C 189.485 94.400,189.185 94.700,189.018 95.067 C 188.851 95.433,188.551 95.733,188.351 95.733 C 188.152 95.733,187.852 96.033,187.685 96.400 C 187.518 96.767,187.218 97.067,187.018 97.067 C 186.819 97.067,186.519 97.367,186.351 97.733 C 186.184 98.100,185.884 98.400,185.685 98.400 C 185.485 98.400,185.185 98.700,185.018 99.067 C 184.851 99.433,184.551 99.733,184.351 99.733 C 184.152 99.733,183.852 100.033,183.685 100.400 C 183.518 100.767,183.218 101.067,183.018 101.067 C 182.819 101.067,182.519 101.367,182.351 101.733 C 182.184 102.100,181.884 102.400,181.685 102.400 C 181.485 102.400,181.185 102.700,181.018 103.067 C 180.851 103.433,180.551 103.733,180.351 103.733 C 180.152 103.733,179.852 104.033,179.685 104.400 C 179.518 104.767,179.218 105.067,179.018 105.067 C 178.819 105.067,178.519 105.367,178.351 105.733 C 178.184 106.100,177.884 106.400,177.685 106.400 C 177.485 106.400,177.185 106.700,177.018 107.067 C 176.851 107.433,176.551 107.733,176.351 107.733 C 176.152 107.733,175.852 108.033,175.685 108.400 C 175.518 108.767,175.218 109.067,175.018 109.067 C 174.819 109.067,174.519 109.367,174.351 109.733 C 174.184 110.100,173.884 110.400,173.685 110.400 C 173.485 110.400,173.185 110.700,173.018 111.067 C 172.851 111.433,172.551 111.733,172.351 111.733 C 172.152 111.733,171.852 112.033,171.685 112.400 C 171.518 112.767,171.218 113.067,171.018 113.067 C 170.819 113.067,170.519 113.367,170.351 113.733 C 170.184 114.100,169.951 114.400,169.833 114.400 C 169.126 114.400,151.467 132.606,151.467 133.335 C 151.467 134.090,168.080 151.200,168.812 151.200 C 168.952 151.200,169.067 151.367,169.067 151.571 C 169.067 151.955,169.619 152.267,170.297 152.267 C 170.716 152.267,203.200 119.932,203.200 119.515 C 203.200 119.376,203.449 119.197,203.753 119.118 C 204.057 119.038,204.368 118.735,204.444 118.444 C 204.520 118.154,204.820 117.854,205.111 117.778 C 205.402 117.702,205.702 117.402,205.778 117.111 C 205.854 116.820,206.154 116.520,206.444 116.444 C 206.735 116.368,207.035 116.068,207.111 115.778 C 207.187 115.487,207.487 115.187,207.778 115.111 C 208.068 115.035,208.368 114.735,208.444 114.444 C 208.520 114.154,208.820 113.854,209.111 113.778 C 209.402 113.702,209.702 113.402,209.778 113.111 C 209.854 112.820,210.154 112.520,210.444 112.444 C 210.735 112.368,211.035 112.068,211.111 111.778 C 211.187 111.487,211.487 111.187,211.778 111.111 C 212.068 111.035,212.368 110.735,212.444 110.444 C 212.520 110.154,212.820 109.854,213.111 109.778 C 213.402 109.702,213.702 109.402,213.778 109.111 C 213.854 108.820,214.154 108.520,214.444 108.444 C 214.735 108.368,215.035 108.068,215.111 107.778 C 215.187 107.487,215.487 107.187,215.778 107.111 C 216.068 107.035,216.368 106.735,216.444 106.444 C 216.520 106.154,216.820 105.854,217.111 105.778 C 217.402 105.702,217.702 105.402,217.778 105.111 C 217.854 104.820,218.154 104.520,218.444 104.444 C 218.735 104.368,219.035 104.068,219.111 103.778 C 219.187 103.487,219.487 103.187,219.778 103.111 C 220.068 103.035,220.368 102.735,220.444 102.444 C 220.520 102.154,220.820 101.854,221.111 101.778 C 221.402 101.702,221.702 101.402,221.778 101.111 C 221.854 100.820,222.154 100.520,222.444 100.444 C 222.735 100.368,223.035 100.068,223.111 99.778 C 223.187 99.487,223.487 99.187,223.778 99.111 C 224.068 99.035,224.368 98.735,224.444 98.444 C 224.520 98.154,224.820 97.854,225.111 97.778 C 225.402 97.702,225.702 97.402,225.778 97.111 C 225.854 96.820,226.154 96.520,226.444 96.444 C 226.735 96.368,227.035 96.068,227.111 95.778 C 227.187 95.487,227.487 95.187,227.778 95.111 C 228.068 95.035,228.368 94.735,228.444 94.444 C 228.520 94.154,228.820 93.854,229.111 93.778 C 229.402 93.702,229.702 93.402,229.778 93.111 C 229.854 92.820,230.154 92.520,230.444 92.444 C 230.735 92.368,231.035 92.068,231.111 91.778 C 231.187 91.487,231.487 91.187,231.778 91.111 C 232.068 91.035,232.368 90.735,232.444 90.444 C 232.520 90.154,232.820 89.854,233.111 89.778 C 233.402 89.702,233.702 89.402,233.778 89.111 C 233.854 88.820,234.154 88.520,234.444 88.444 C 234.735 88.368,235.035 88.068,235.111 87.778 C 235.187 87.487,235.487 87.187,235.778 87.111 C 236.068 87.035,236.368 86.735,236.444 86.444 C 236.520 86.154,236.820 85.854,237.111 85.778 C 237.402 85.702,237.702 85.402,237.778 85.111 C 237.854 84.820,238.154 84.520,238.444 84.444 C 238.735 84.368,239.035 84.068,239.111 83.778 C 239.187 83.487,239.487 83.187,239.778 83.111 C 240.068 83.035,240.368 82.735,240.444 82.444 C 240.520 82.154,240.820 81.854,241.111 81.778 C 241.402 81.702,241.702 81.402,241.778 81.111 C 241.854 80.820,242.154 80.520,242.444 80.444 C 242.735 80.368,243.035 80.068,243.111 79.778 C 243.187 79.487,243.487 79.187,243.778 79.111 C 244.068 79.035,244.368 78.735,244.444 78.444 C 244.520 78.154,244.820 77.854,245.111 77.778 C 245.402 77.702,245.702 77.402,245.778 77.111 C 245.854 76.820,246.154 76.520,246.444 76.444 C 246.735 76.368,247.031 76.083,247.103 75.809 C 247.174 75.536,247.495 75.197,247.815 75.056 C 248.501 74.754,248.709 73.999,248.256 73.454 C 247.981 73.122,245.286 73.067,229.469 73.067 L 211.003 73.067 206.568 77.468 M247.577 73.684 C 248.037 74.020,172.906 149.804,170.645 151.285 L 169.956 151.736 161.112 142.898 C 154.005 135.797,152.267 133.923,152.267 133.363 C 152.267 132.577,210.848 73.756,211.867 73.519 C 213.303 73.185,247.109 73.341,247.577 73.684 M204.323 134.733 C 181.646 157.105,178.332 160.533,178.785 161.153 C 179.018 161.472,179.345 162.001,179.511 162.328 C 179.678 162.655,180.030 162.992,180.293 163.075 C 180.557 163.159,180.845 163.455,180.933 163.733 C 181.022 164.012,181.322 164.312,181.600 164.400 C 181.878 164.488,182.178 164.788,182.267 165.067 C 182.355 165.345,182.655 165.645,182.933 165.733 C 183.212 165.822,183.512 166.122,183.600 166.400 C 183.688 166.678,183.988 166.978,184.267 167.067 C 184.545 167.155,184.845 167.455,184.933 167.733 C 185.022 168.012,185.322 168.312,185.600 168.400 C 185.878 168.488,186.178 168.788,186.267 169.067 C 186.355 169.345,186.655 169.645,186.933 169.733 C 187.212 169.822,187.512 170.122,187.600 170.400 C 187.688 170.678,187.988 170.978,188.267 171.067 C 188.545 171.155,188.845 171.455,188.933 171.733 C 189.022 172.012,189.322 172.312,189.600 172.400 C 189.878 172.488,190.178 172.788,190.267 173.067 C 190.355 173.345,190.655 173.645,190.933 173.733 C 191.212 173.822,191.512 174.122,191.600 174.400 C 191.688 174.678,191.988 174.978,192.267 175.067 C 192.545 175.155,192.845 175.455,192.933 175.733 C 193.022 176.012,193.322 176.312,193.600 176.400 C 193.878 176.488,194.178 176.788,194.267 177.067 C 194.355 177.345,194.655 177.645,194.933 177.733 C 195.212 177.822,195.512 178.122,195.600 178.400 C 195.688 178.678,195.982 178.976,196.252 179.062 C 196.522 179.148,196.806 179.463,196.885 179.762 C 196.963 180.061,197.265 180.368,197.556 180.444 C 197.846 180.520,198.146 180.820,198.222 181.111 C 198.298 181.402,198.598 181.702,198.889 181.778 C 199.180 181.854,199.480 182.154,199.556 182.444 C 199.632 182.735,199.932 183.035,200.222 183.111 C 200.513 183.187,200.813 183.487,200.889 183.778 C 200.965 184.068,201.265 184.368,201.556 184.444 C 201.846 184.520,202.146 184.820,202.222 185.111 C 202.298 185.402,202.598 185.702,202.889 185.778 C 203.180 185.854,203.480 186.154,203.556 186.444 C 203.632 186.735,203.932 187.035,204.222 187.111 C 204.513 187.187,204.813 187.487,204.889 187.778 C 204.965 188.068,205.265 188.368,205.556 188.444 C 205.846 188.520,206.146 188.820,206.222 189.111 C 206.298 189.402,206.598 189.702,206.889 189.778 C 207.180 189.854,207.480 190.154,207.556 190.444 C 207.632 190.735,207.932 191.035,208.222 191.111 C 208.513 191.187,208.813 191.487,208.889 191.778 C 208.965 192.068,209.251 192.365,209.524 192.436 C 209.797 192.508,210.136 192.829,210.277 193.150 L 210.533 193.733 229.408 193.802 L 248.283 193.870 248.501 193.278 C 248.800 192.470,248.588 191.815,247.834 191.222 C 247.485 190.948,247.200 190.611,247.200 190.473 C 247.200 190.336,246.900 190.063,246.533 189.867 C 246.167 189.670,245.867 189.370,245.867 189.200 C 245.867 189.030,245.567 188.730,245.200 188.533 C 244.833 188.337,244.533 188.037,244.533 187.867 C 244.533 187.696,244.233 187.396,243.867 187.200 C 243.500 187.004,243.200 186.704,243.200 186.533 C 243.200 186.363,242.900 186.063,242.533 185.867 C 242.167 185.670,241.867 185.370,241.867 185.200 C 241.867 185.030,241.567 184.730,241.200 184.533 C 240.833 184.337,240.533 184.037,240.533 183.867 C 240.533 183.696,240.233 183.396,239.867 183.200 C 239.500 183.004,239.200 182.704,239.200 182.533 C 239.200 182.363,238.900 182.063,238.533 181.867 C 238.167 181.670,237.867 181.370,237.867 181.200 C 237.867 181.030,237.567 180.730,237.200 180.533 C 236.833 180.337,236.533 180.037,236.533 179.867 C 236.533 179.696,236.233 179.396,235.867 179.200 C 235.500 179.004,235.200 178.704,235.200 178.533 C 235.200 178.363,234.900 178.063,234.533 177.867 C 234.167 177.670,233.867 177.370,233.867 177.200 C 233.867 177.030,233.567 176.730,233.200 176.533 C 232.833 176.337,232.533 176.037,232.533 175.867 C 232.533 175.696,232.233 175.396,231.867 175.200 C 231.500 175.004,231.200 174.704,231.200 174.533 C 231.200 174.363,230.900 174.063,230.533 173.867 C 230.167 173.670,229.867 173.370,229.867 173.200 C 229.867 173.030,229.567 172.730,229.200 172.533 C 228.833 172.337,228.533 172.037,228.533 171.867 C 228.533 171.696,228.233 171.396,227.867 171.200 C 227.500 171.004,227.200 170.704,227.200 170.533 C 227.200 170.363,226.900 170.063,226.533 169.867 C 226.167 169.670,225.867 169.370,225.867 169.200 C 225.867 169.030,225.567 168.730,225.200 168.533 C 224.833 168.337,224.533 168.037,224.533 167.867 C 224.533 167.696,224.233 167.396,223.867 167.200 C 223.500 167.004,223.200 166.704,223.200 166.533 C 223.200 166.363,222.900 166.063,222.533 165.867 C 222.167 165.670,221.867 165.370,221.867 165.200 C 221.867 165.030,221.567 164.730,221.200 164.533 C 220.833 164.337,220.533 164.037,220.533 163.867 C 220.533 163.696,220.233 163.396,219.867 163.200 C 219.500 163.004,219.200 162.704,219.200 162.533 C 219.200 162.363,218.900 162.063,218.533 161.867 C 217.284 161.198,217.714 160.710,233.021 145.407 C 248.485 129.947,249.122 129.229,248.199 128.306 C 247.975 128.082,242.972 128.000,229.521 128.000 L 211.148 128.000 204.323 134.733 M247.423 129.435 C 247.493 129.802,243.417 134.044,232.269 145.202 L 217.019 160.468 217.417 161.237 C 217.636 161.660,224.666 168.856,233.041 177.228 C 241.415 185.600,248.267 192.585,248.267 192.749 C 248.267 193.541,246.951 193.600,229.328 193.600 L 211.422 193.600 195.644 177.712 C 186.967 168.973,179.716 161.540,179.532 161.193 C 179.101 160.379,179.591 159.863,197.519 142.227 L 211.172 128.796 229.249 128.865 C 246.705 128.931,247.329 128.951,247.423 129.435 " stroke="none" fill="#ccdcec" fill-rule="evenodd"></path></g></svg>